<?xml version="1.0" standalone="no"?><!DOCTYPE svg PUBLIC "-//W3C//DTD SVG 1.1//EN" "http://www.w3.org/Graphics/SVG/1.1/DTD/svg11.dtd"><svg xmlns:xlink="http://www.w3.org/1999/xlink" version="1.1" class="highcharts-root" style="font-family: Roboto; font-size: 12px;" xmlns="http://www.w3.org/2000/svg" width="650" height="400" viewBox="0 0 650 400" aria-label="Interactive chart" aria-hidden="false"><desc aria-hidden="true">Created with Highcharts 10.3.1</desc><defs aria-hidden="true"><clipPath id="highcharts-btu7snj-3987-"><rect x="0" y="0" width="572" height="254" fill="none"></rect></clipPath><clipPath id="highcharts-btu7snj-4030-"><rect x="0" y="0" width="572" height="254" fill="none"></rect></clipPath></defs><rect fill="#ffffff" class="highcharts-background" x="0" y="0" width="650" height="400" rx="0" ry="0" aria-hidden="true"></rect><rect fill="none" class="highcharts-plot-background" x="68" y="47" width="572" height="254" aria-hidden="true"></rect><g class="highcharts-pane-group" data-z-index="0" aria-hidden="true"></g><g class="highcharts-grid highcharts-xaxis-grid" data-z-index="1" aria-hidden="true"><path fill="none" stroke-dasharray="none" data-z-index="1" class="highcharts-grid-line" d="M 74.5 47 L 74.5 301" opacity="1"></path><path fill="none" stroke-dasharray="none" data-z-index="1" class="highcharts-grid-line" d="M 101.5 47 L 101.5 301" opacity="1"></path><path fill="none" stroke-dasharray="none" data-z-index="1" class="highcharts-grid-line" d="M 128.5 47 L 128.5 301" opacity="1"></path><path fill="none" stroke-dasharray="none" data-z-index="1" class="highcharts-grid-line" d="M 156.5 47 L 156.5 301" opacity="1"></path><path fill="none" stroke-dasharray="none" data-z-index="1" class="highcharts-grid-line" d="M 183.5 47 L 183.5 301" opacity="1"></path><path fill="none" stroke-dasharray="none" data-z-index="1" class="highcharts-grid-line" d="M 210.5 47 L 210.5 301" opacity="1"></path><path fill="none" stroke-dasharray="none" data-z-index="1" class="highcharts-grid-line" d="M 237.5 47 L 237.5 301" opacity="1"></path><path fill="none" stroke-dasharray="none" data-z-index="1" class="highcharts-grid-line" d="M 264.5 47 L 264.5 301" opacity="1"></path><path fill="none" stroke-dasharray="none" data-z-index="1" class="highcharts-grid-line" d="M 292.5 47 L 292.5 301" opacity="1"></path><path fill="none" stroke-dasharray="none" data-z-index="1" class="highcharts-grid-line" d="M 319.5 47 L 319.5 301" opacity="1"></path><path fill="none" stroke-dasharray="none" data-z-index="1" class="highcharts-grid-line" d="M 346.5 47 L 346.5 301" opacity="1"></path><path fill="none" stroke-dasharray="none" data-z-index="1" class="highcharts-grid-line" d="M 373.5 47 L 373.5 301" opacity="1"></path><path fill="none" stroke-dasharray="none" data-z-index="1" class="highcharts-grid-line" d="M 401.5 47 L 401.5 301" opacity="1"></path><path fill="none" stroke-dasharray="none" data-z-index="1" class="highcharts-grid-line" d="M 428.5 47 L 428.5 301" opacity="1"></path><path fill="none" stroke-dasharray="none" data-z-index="1" class="highcharts-grid-line" d="M 455.5 47 L 455.5 301" opacity="1"></path><path fill="none" stroke-dasharray="none" data-z-index="1" class="highcharts-grid-line" d="M 482.5 47 L 482.5 301" opacity="1"></path><path fill="none" stroke-dasharray="none" data-z-index="1" class="highcharts-grid-line" d="M 510.5 47 L 510.5 301" opacity="1"></path><path fill="none" stroke-dasharray="none" data-z-index="1" class="highcharts-grid-line" d="M 537.5 47 L 537.5 301" opacity="1"></path><path fill="none" stroke-dasharray="none" data-z-index="1" class="highcharts-grid-line" d="M 564.5 47 L 564.5 301" opacity="1"></path><path fill="none" stroke-dasharray="none" data-z-index="1" class="highcharts-grid-line" d="M 591.5 47 L 591.5 301" opacity="1"></path><path fill="none" stroke-dasharray="none" data-z-index="1" class="highcharts-grid-line" d="M 619.5 47 L 619.5 301" opacity="1"></path></g><g class="highcharts-grid highcharts-yaxis-grid" data-z-index="1" aria-hidden="true"><path fill="none" stroke="#e6e6e6" stroke-width="1" stroke-dasharray="none" data-z-index="1" class="highcharts-grid-line" d="M 68 301.5 L 640 301.5" opacity="1"></path><path fill="none" stroke="#e6e6e6" stroke-width="1" stroke-dasharray="none" data-z-index="1" class="highcharts-grid-line" d="M 68 238.5 L 640 238.5" opacity="1"></path><path fill="none" stroke="#e6e6e6" stroke-width="1" stroke-dasharray="none" data-z-index="1" class="highcharts-grid-line" d="M 68 174.5 L 640 174.5" opacity="1"></path><path fill="none" stroke="#e6e6e6" stroke-width="1" stroke-dasharray="none" data-z-index="1" class="highcharts-grid-line" d="M 68 111.5 L 640 111.5" opacity="1"></path><path fill="none" stroke="#e6e6e6" stroke-width="1" stroke-dasharray="none" data-z-index="1" class="highcharts-grid-line" d="M 68 46.5 L 640 46.5" opacity="1"></path></g><rect fill="none" class="highcharts-plot-border" data-z-index="1" x="68" y="47" width="572" height="254" aria-hidden="true"></rect><g class="highcharts-axis highcharts-xaxis" data-z-index="2" aria-hidden="true"><path fill="none" class="highcharts-axis-line" stroke="#ccd6eb" stroke-width="1" data-z-index="7" d="M 68 301.5 L 640 301.5"></path></g><g class="highcharts-axis highcharts-yaxis" data-z-index="2" aria-hidden="true"><text x="24.46875" data-z-index="7" text-anchor="middle" transform="translate(0,0) rotate(270 24.46875 174)" class="highcharts-axis-title" style="color: rgb(102, 102, 102); fill: rgb(102, 102, 102);" y="174">Values</text><path fill="none" class="highcharts-axis-line" data-z-index="7" d="M 68 47 L 68 301"></path></g><g class="highcharts-series-group" data-z-index="3" aria-hidden="false"><g class="highcharts-series highcharts-series-0 highcharts-spline-series" data-z-index="0.1" opacity="1" transform="translate(68,47) scale(1 1)" clip-path="url(#highcharts-btu7snj-4030-)" aria-hidden="true"><path fill="none" d="M 6.8095238095238 252.73 C 6.8095238095238 252.73 14.98095238095272 252.73 20.428571428572 252.73 C 25.8761904761908 252.73 28.6000000000002 252.73 34.047619047619 252.73 C 39.4952380952382 252.73 42.2190476190478 254 47.666666666667 254 C 53.1142857142858 254 55.83809523809521 252.73 61.285714285714 252.73 C 66.7333333333332 252.73 69.4571428571428 252.73 74.904761904762 252.73 C 80.3523809523812 252.73 83.0761904761908 254 88.52380952381 254 C 93.97142857143001 254 96.69523809524 252.73 102.14285714286 252.73 C 107.59047619047598 252.73 110.31428571428401 252.73 115.7619047619 252.73 C 121.20952380952 252.73 123.93333333332998 252.73 129.38095238095 252.73 C 134.82857142857 252.73 137.55238095238002 252.73 143 252.73 C 148.447619047616 252.73 151.171428571424 252.73 156.61904761904 243.84 C 162.06666666666 234.95000000000002 164.79047619047 217.17000000000007 170.23809523809 182.88 C 175.68571428571 148.5900000000001 178.40952380952 72.38999999999999 183.85714285714 72.38999999999999 C 189.30476190476003 72.38999999999999 192.02857142857 84.07399999999168 197.47619047619 106.68 C 202.923809523806 129.2859999999917 205.647619047614 175.26000000000005 211.09523809523 185.42000000000002 C 216.54285714285 195.57999999999998 219.26666666666 191.00799999999998 224.71428571428 195.57999999999998 C 230.1619047619 200.15199999999996 232.88571428570998 201.67600000000002 238.33333333333 208.28 C 243.78095238095003 214.88400000000001 246.50476190475996 228.6 251.95238095238 228.6 C 257.399999999996 228.6 260.12380952380397 218.44 265.57142857142 218.44 C 271.01904761903995 218.44 273.74285714284997 237.48999999999998 279.19047619047 238.76 C 284.63809523809 240.03 287.3619047619 238.76 292.80952380952 240.03 C 298.25714285714 241.3 300.98095238095004 247.65 306.42857142857 247.65 C 311.87619047619 247.65 314.6 247.65 320.04761904762 247.65 C 325.495238095236 247.65 328.219047619044 252.73 333.66666666666 252.73 C 339.11428571428 252.73 341.83809523809 250.19 347.28571428571 250.19 C 352.73333333333 250.19 355.45714285713996 254 360.90476190476 254 C 366.35238095238 254 369.07619047618994 253.74600000000038 374.52380952381 252.73 C 379.971428571426 251.71400000000037 382.695238095234 248.92 388.14285714285 248.92 C 393.59047619047 248.92 396.31428571427995 251.46 401.7619047619 251.46 C 407.20952380951996 251.46 409.93333333333004 250.19 415.38095238095 250.19 C 420.82857142857 250.19 423.55238095238 254 429 254 C 434.447619047616 254 437.171428571424 254 442.61904761904 254 C 448.06666666665996 254 450.79047619047 251.46 456.23809523809 251.46 C 461.68571428571005 251.46 464.40952380952 252.73 469.85714285714 252.73 C 475.30476190476 252.73 478.02857142857 252.73 483.47619047619 252.73 C 488.9238095238061 252.73 491.647619047614 252.73 497.09523809523 252.73 C 502.54285714285 252.73 505.26666666666006 252.73 510.71428571428 252.73 C 516.1619047619 252.73 518.8857142857099 252.73 524.33333333333 252.73 C 529.78095238095 252.73 532.50476190476 252.73 537.95238095238 252.73 C 543.399999999996 252.73 546.1238095238041 254 551.57142857142 254 C 557.0190476190401 254 565.19047619047 254 565.19047619047 254" class="highcharts-graph" data-z-index="1" stroke="black" stroke-width="2" stroke-linejoin="round" stroke-linecap="round"></path></g><g class="highcharts-markers highcharts-series-0 highcharts-spline-series" data-z-index="0.1" opacity="1" transform="translate(68,47) scale(1 1)" clip-path="none" aria-hidden="false"><path fill="black" d="M 6 257 A 4 4 0 1 1 6.0039999993333355 256.9999980000002 Z" opacity="1" class="highcharts-point" tabindex="-1" role="img" aria-label="19-Aug, 1. Deaths." style="outline: none;"></path><path fill="black" d="M 20 257 A 4 4 0 1 1 20.003999999333335 256.9999980000002 Z" opacity="1" class="highcharts-point" tabindex="-1" role="img" aria-label="20-Aug, 1. Deaths." style="outline: none;"></path><path fill="black" d="M 34 257 A 4 4 0 1 1 34.00399999933334 256.9999980000002 Z" opacity="1" class="highcharts-point" tabindex="-1" role="img" aria-label="21-Aug, 1. Deaths." style="outline: none;"></path><path fill="black" d="M 47 258 A 4 4 0 1 1 47.00399999933334 257.9999980000002 Z" opacity="1" class="highcharts-point" tabindex="-1" role="img" aria-label="22-Aug, 0. Deaths." style="outline: none;"></path><path fill="black" d="M 61 257 A 4 4 0 1 1 61.00399999933334 256.9999980000002 Z" opacity="1" class="highcharts-point" tabindex="-1" role="img" aria-label="23-Aug, 1. Deaths." style="outline: none;"></path><path fill="black" d="M 74 257 A 4 4 0 1 1 74.00399999933333 256.9999980000002 Z" opacity="1" class="highcharts-point" tabindex="-1" role="img" aria-label="24-Aug, 1. Deaths." style="outline: none;"></path><path fill="black" d="M 88 258 A 4 4 0 1 1 88.00399999933333 257.9999980000002 Z" opacity="1" class="highcharts-point" tabindex="-1" role="img" aria-label="25-Aug, 0. Deaths." style="outline: none;"></path><path fill="black" d="M 102 257 A 4 4 0 1 1 102.00399999933333 256.9999980000002 Z" opacity="1" class="highcharts-point" tabindex="-1" role="img" aria-label="26-Aug, 1. Deaths." style="outline: none;"></path><path fill="black" d="M 115 257 A 4 4 0 1 1 115.00399999933333 256.9999980000002 Z" opacity="1" class="highcharts-point" tabindex="-1" role="img" aria-label="27-Aug, 1. Deaths." style="outline: none;"></path><path fill="black" d="M 129 257 A 4 4 0 1 1 129.00399999933333 256.9999980000002 Z" opacity="1" class="highcharts-point" tabindex="-1" role="img" aria-label="28-Aug, 1. Deaths." style="outline: none;"></path><path fill="black" d="M 143 257 A 4 4 0 1 1 143.00399999933333 256.9999980000002 Z" opacity="1" class="highcharts-point" tabindex="-1" role="img" aria-label="29-Aug, 1. Deaths." style="outline: none;"></path><path fill="black" d="M 156 248 A 4 4 0 1 1 156.00399999933333 247.99999800000018 Z" opacity="1" class="highcharts-point" tabindex="-1" role="img" aria-label="30-Aug, 8. Deaths." style="outline: none;"></path><path fill="black" d="M 170 187 A 4 4 0 1 1 170.00399999933333 186.99999800000018 Z" opacity="1" class="highcharts-point" tabindex="-1" role="img" aria-label="31-Aug, 56. Deaths." style="outline: none;"></path><path fill="black" d="M 183 76 A 4 4 0 1 1 183.00399999933333 75.99999800000016 Z" opacity="1" class="highcharts-point" tabindex="-1" role="img" aria-label="1-Sep, 143. Deaths." style="outline: none;"></path><path fill="black" d="M 197 111 A 4 4 0 1 1 197.00399999933333 110.99999800000016 Z" opacity="1" class="highcharts-point" tabindex="-1" role="img" aria-label="2-Sep, 116. Deaths." style="outline: none;"></path><path fill="black" d="M 211 189 A 4 4 0 1 1 211.00399999933333 188.99999800000018 Z" opacity="1" class="highcharts-point" tabindex="-1" role="img" aria-label="3-Sep, 54. Deaths." style="outline: none;"></path><path fill="black" d="M 224 200 A 4 4 0 1 1 224.00399999933333 199.99999800000018 Z" opacity="1" class="highcharts-point" tabindex="-1" role="img" aria-label="4-Sep, 46. Deaths." style="outline: none;"></path><path fill="black" d="M 238 212 A 4 4 0 1 1 238.00399999933333 211.99999800000018 Z" opacity="1" class="highcharts-point" tabindex="-1" role="img" aria-label="5-Sep, 36. Deaths." style="outline: none;"></path><path fill="black" d="M 251 233 A 4 4 0 1 1 251.00399999933333 232.99999800000018 Z" opacity="1" class="highcharts-point" tabindex="-1" role="img" aria-label="6-Sep, 20. Deaths." style="outline: none;"></path><path fill="black" d="M 265 222 A 4 4 0 1 1 265.00399999933336 221.99999800000018 Z" opacity="1" class="highcharts-point" tabindex="-1" role="img" aria-label="7-Sep, 28. Deaths." style="outline: none;"></path><path fill="black" d="M 279 243 A 4 4 0 1 1 279.00399999933336 242.99999800000018 Z" opacity="1" class="highcharts-point" tabindex="-1" role="img" aria-label="8-Sep, 12. Deaths." style="outline: none;"></path><path fill="black" d="M 292 244 A 4 4 0 1 1 292.00399999933336 243.99999800000018 Z" opacity="1" class="highcharts-point" tabindex="-1" role="img" aria-label="9-Sep, 11. Deaths." style="outline: none;"></path><path fill="black" d="M 306 252 A 4 4 0 1 1 306.00399999933336 251.99999800000018 Z" opacity="1" class="highcharts-point" tabindex="-1" role="img" aria-label="10-Seop, 5. Deaths." style="outline: none;"></path><path fill="black" d="M 320 252 A 4 4 0 1 1 320.00399999933336 251.99999800000018 Z" opacity="1" class="highcharts-point" tabindex="-1" role="img" aria-label="11-Sep, 5. Deaths." style="outline: none;"></path><path fill="black" d="M 333 257 A 4 4 0 1 1 333.00399999933336 256.9999980000002 Z" opacity="1" class="highcharts-point" tabindex="-1" role="img" aria-label="12-Sep, 1. Deaths." style="outline: none;"></path><path fill="black" d="M 347 254 A 4 4 0 1 1 347.00399999933336 253.99999800000018 Z" opacity="1" class="highcharts-point" tabindex="-1" role="img" aria-label="13-Sep, 3. Deaths." style="outline: none;"></path><path fill="black" d="M 360 258 A 4 4 0 1 1 360.00399999933336 257.9999980000002 Z" opacity="1" class="highcharts-point" tabindex="-1" role="img" aria-label="14-Sep, 0. Deaths." style="outline: none;"></path><path fill="black" d="M 374 257 A 4 4 0 1 1 374.00399999933336 256.9999980000002 Z" opacity="1" class="highcharts-point" tabindex="-1" role="img" aria-label="15-Sep, 1. Deaths." style="outline: none;"></path><path fill="black" d="M 388 253 A 4 4 0 1 1 388.00399999933336 252.99999800000018 Z" opacity="1" class="highcharts-point" tabindex="-1" role="img" aria-label="16-Sep, 4. Deaths." style="outline: none;"></path><path fill="black" d="M 401 255 A 4 4 0 1 1 401.00399999933336 254.99999800000018 Z" opacity="1" class="highcharts-point" tabindex="-1" role="img" aria-label="17-Sep, 2. Deaths." style="outline: none;"></path><path fill="black" d="M 415 254 A 4 4 0 1 1 415.00399999933336 253.99999800000018 Z" opacity="1" class="highcharts-point" tabindex="-1" role="img" aria-label="18-Sep, 3. Deaths." style="outline: none;"></path><path fill="black" d="M 429 258 A 4 4 0 1 1 429.00399999933336 257.9999980000002 Z" opacity="1" class="highcharts-point" tabindex="-1" role="img" aria-label="19-Sep, 0. Deaths." style="outline: none;"></path><path fill="black" d="M 442 258 A 4 4 0 1 1 442.00399999933336 257.9999980000002 Z" opacity="1" class="highcharts-point" tabindex="-1" role="img" aria-label="20-Sep, 0. Deaths." style="outline: none;"></path><path fill="black" d="M 456 255 A 4 4 0 1 1 456.00399999933336 254.99999800000018 Z" opacity="1" class="highcharts-point" tabindex="-1" role="img" aria-label="21-Sep, 2. Deaths." style="outline: none;"></path><path fill="black" d="M 469 257 A 4 4 0 1 1 469.00399999933336 256.9999980000002 Z" opacity="1" class="highcharts-point" tabindex="-1" role="img" aria-label="22-Sep, 1. Deaths." style="outline: none;"></path><path fill="black" d="M 483 257 A 4 4 0 1 1 483.00399999933336 256.9999980000002 Z" opacity="1" class="highcharts-point" tabindex="-1" role="img" aria-label="23-Sep, 1. Deaths." style="outline: none;"></path><path fill="black" d="M 497 257 A 4 4 0 1 1 497.00399999933336 256.9999980000002 Z" opacity="1" class="highcharts-point" tabindex="-1" role="img" aria-label="24-Sep, 1. Deaths." style="outline: none;"></path><path fill="black" d="M 510 257 A 4 4 0 1 1 510.00399999933336 256.9999980000002 Z" opacity="1" class="highcharts-point" tabindex="-1" role="img" aria-label="25-Sep, 1. Deaths." style="outline: none;"></path><path fill="black" d="M 524 257 A 4 4 0 1 1 524.0039999993334 256.9999980000002 Z" opacity="1" class="highcharts-point" tabindex="-1" role="img" aria-label="26-Sep, 1. Deaths." style="outline: none;"></path><path fill="black" d="M 537 257 A 4 4 0 1 1 537.0039999993334 256.9999980000002 Z" opacity="1" class="highcharts-point" tabindex="-1" role="img" aria-label="27-Sep, 1. Deaths." style="outline: none;"></path><path fill="black" d="M 551 258 A 4 4 0 1 1 551.0039999993334 257.9999980000002 Z" opacity="1" class="highcharts-point" tabindex="-1" role="img" aria-label="28-Sep, 0. Deaths." style="outline: none;"></path><path fill="black" d="M 565 258 A 4 4 0 1 1 565.0039999993334 257.9999980000002 Z" opacity="1" class="highcharts-point" tabindex="-1" role="img" aria-label="29-Sep, 0. Deaths." style="outline: none;"></path></g></g><text x="325" text-anchor="middle" class="highcharts-title" data-z-index="4" style="color: rgb(51, 51, 51); font-size: 18px; fill: rgb(51, 51, 51);" y="24" aria-hidden="true">Death Days</text><text x="325" text-anchor="middle" class="highcharts-subtitle" data-z-index="4" style="color: rgb(102, 102, 102); fill: rgb(102, 102, 102);" y="46" aria-hidden="true"></text><text x="10" text-anchor="start" class="highcharts-caption" data-z-index="4" style="color: rgb(102, 102, 102); fill: rgb(102, 102, 102);" y="397" aria-hidden="true"></text><g class="highcharts-legend highcharts-no-tooltip" data-z-index="7" transform="translate(287,359)" aria-hidden="true"><rect fill="none" class="highcharts-legend-box" rx="0" ry="0" x="0" y="0" width="76" height="26"></rect><g data-z-index="1"><g><g class="highcharts-legend-item highcharts-spline-series highcharts-color-undefined highcharts-series-0" data-z-index="1" transform="translate(8,3)"><path fill="none" d="M 0 11 L 16 11" class="highcharts-graph" stroke="black" stroke-width="2"></path><path fill="black" d="M 8 15 A 4 4 0 1 1 8.003999999333336 14.999998000000167 Z" class="highcharts-point" opacity="1"></path><text x="21" text-anchor="start" data-z-index="2" y="15" style="color: rgb(51, 51, 51); cursor: pointer; font-size: 12px; font-weight: bold; fill: rgb(51, 51, 51);">Deaths</text></g></g></g></g><g class="highcharts-axis-labels highcharts-xaxis-labels" data-z-index="7" aria-hidden="true"><text x="77.40224867387467" text-anchor="end" transform="translate(0,0) rotate(-45 77.40224867387467 317)" style="color: rgb(102, 102, 102); cursor: default; font-size: 11px; fill: rgb(102, 102, 102);" y="317" opacity="1">19-Aug</text><text x="104.64034391197067" text-anchor="end" transform="translate(0,0) rotate(-45 104.64034391197067 317)" style="color: rgb(102, 102, 102); cursor: default; font-size: 11px; fill: rgb(102, 102, 102);" y="317" opacity="1">21-Aug</text><text x="131.87843915006067" text-anchor="end" transform="translate(0,0) rotate(-45 131.87843915006067 317)" style="color: rgb(102, 102, 102); cursor: default; font-size: 11px; fill: rgb(102, 102, 102);" y="317" opacity="1">23-Aug</text><text x="159.1165343881607" text-anchor="end" transform="translate(0,0) rotate(-45 159.1165343881607 317)" style="color: rgb(102, 102, 102); cursor: default; font-size: 11px; fill: rgb(102, 102, 102);" y="317" opacity="1">25-Aug</text><text x="186.3546296262507" text-anchor="end" transform="translate(0,0) rotate(-45 186.3546296262507 317)" style="color: rgb(102, 102, 102); cursor: default; font-size: 11px; fill: rgb(102, 102, 102);" y="317" opacity="1">27-Aug</text><text x="213.59272486435069" text-anchor="end" transform="translate(0,0) rotate(-45 213.59272486435069 317)" style="color: rgb(102, 102, 102); cursor: default; font-size: 11px; fill: rgb(102, 102, 102);" y="317" opacity="1">29-Aug</text><text x="240.8308201024407" text-anchor="end" transform="translate(0,0) rotate(-45 240.8308201024407 317)" style="color: rgb(102, 102, 102); cursor: default; font-size: 11px; fill: rgb(102, 102, 102);" y="317" opacity="1">31-Aug</text><text x="268.0689153405407" text-anchor="end" transform="translate(0,0) rotate(-45 268.0689153405407 317)" style="color: rgb(102, 102, 102); cursor: default; font-size: 11px; fill: rgb(102, 102, 102);" y="317" opacity="1">2-Sep</text><text x="295.30701057863064" text-anchor="end" transform="translate(0,0) rotate(-45 295.30701057863064 317)" style="color: rgb(102, 102, 102); cursor: default; font-size: 11px; fill: rgb(102, 102, 102);" y="317" opacity="1">4-Sep</text><text x="322.54510581673065" text-anchor="end" transform="translate(0,0) rotate(-45 322.54510581673065 317)" style="color: rgb(102, 102, 102); cursor: default; font-size: 11px; fill: rgb(102, 102, 102);" y="317" opacity="1">6-Sep</text><text x="349.78320105482067" text-anchor="end" transform="translate(0,0) rotate(-45 349.78320105482067 317)" style="color: rgb(102, 102, 102); cursor: default; font-size: 11px; fill: rgb(102, 102, 102);" y="317" opacity="1">8-Sep</text><text x="377.0212962929207" text-anchor="end" transform="translate(0,0) rotate(-45 377.0212962929207 317)" style="color: rgb(102, 102, 102); cursor: default; font-size: 11px; fill: rgb(102, 102, 102);" y="317" opacity="1">10-Seop</text><text x="404.25939153101064" text-anchor="end" transform="translate(0,0) rotate(-45 404.25939153101064 317)" style="color: rgb(102, 102, 102); cursor: default; font-size: 11px; fill: rgb(102, 102, 102);" y="317" opacity="1">12-Sep</text><text x="431.49748676911065" text-anchor="end" transform="translate(0,0) rotate(-45 431.49748676911065 317)" style="color: rgb(102, 102, 102); cursor: default; font-size: 11px; fill: rgb(102, 102, 102);" y="317" opacity="1">14-Sep</text><text x="458.73558200720066" text-anchor="end" transform="translate(0,0) rotate(-45 458.73558200720066 317)" style="color: rgb(102, 102, 102); cursor: default; font-size: 11px; fill: rgb(102, 102, 102);" y="317" opacity="1">16-Sep</text><text x="485.9736772453007" text-anchor="end" transform="translate(0,0) rotate(-45 485.9736772453007 317)" style="color: rgb(102, 102, 102); cursor: default; font-size: 11px; fill: rgb(102, 102, 102);" y="317" opacity="1">18-Sep</text><text x="513.2117724833906" text-anchor="end" transform="translate(0,0) rotate(-45 513.2117724833906 317)" style="color: rgb(102, 102, 102); cursor: default; font-size: 11px; fill: rgb(102, 102, 102);" y="317" opacity="1">20-Sep</text><text x="540.4498677214907" text-anchor="end" transform="translate(0,0) rotate(-45 540.4498677214907 317)" style="color: rgb(102, 102, 102); cursor: default; font-size: 11px; fill: rgb(102, 102, 102);" y="317" opacity="1">22-Sep</text><text x="567.6879629595807" text-anchor="end" transform="translate(0,0) rotate(-45 567.6879629595807 317)" style="color: rgb(102, 102, 102); cursor: default; font-size: 11px; fill: rgb(102, 102, 102);" y="317" opacity="1">24-Sep</text><text x="594.9260581976806" text-anchor="end" transform="translate(0,0) rotate(-45 594.9260581976806 317)" style="color: rgb(102, 102, 102); cursor: default; font-size: 11px; fill: rgb(102, 102, 102);" y="317" opacity="1">26-Sep</text><text x="622.1641534357707" text-anchor="end" transform="translate(0,0) rotate(-45 622.1641534357707 317)" style="color: rgb(102, 102, 102); cursor: default; font-size: 11px; fill: rgb(102, 102, 102);" y="317" opacity="1">28-Sep</text></g><g class="highcharts-axis-labels highcharts-yaxis-labels" data-z-index="7" aria-hidden="true"><text x="53" text-anchor="end" transform="translate(0,0)" style="color: rgb(102, 102, 102); cursor: default; font-size: 11px; fill: rgb(102, 102, 102);" y="306" opacity="1">0</text><text x="53" text-anchor="end" transform="translate(0,0)" style="color: rgb(102, 102, 102); cursor: default; font-size: 11px; fill: rgb(102, 102, 102);" y="242" opacity="1">50</text><text x="53" text-anchor="end" transform="translate(0,0)" style="color: rgb(102, 102, 102); cursor: default; font-size: 11px; fill: rgb(102, 102, 102);" y="179" opacity="1">100</text><text x="53" text-anchor="end" transform="translate(0,0)" style="color: rgb(102, 102, 102); cursor: default; font-size: 11px; fill: rgb(102, 102, 102);" y="115" opacity="1">150</text><text x="53" text-anchor="end" transform="translate(0,0)" style="color: rgb(102, 102, 102); cursor: default; font-size: 11px; fill: rgb(102, 102, 102);" y="52" opacity="1">200</text></g><text x="640" class="highcharts-credits" text-anchor="end" data-z-index="8" y="395" style="cursor: pointer; color: rgb(153, 153, 153); font-size: 9px; fill: rgb(153, 153, 153);" aria-label="Chart credits: Highcharts.com" aria-hidden="false">Highcharts.com</text></svg>